HIERARCHY
ROOT Hips
{
	OFFSET 0.00000 0.00000 0.00000
	CHANNELS 6 Xposition Yposition Zposition Yrotation Zrotation Xrotation 
	JOINT Lumbar
	{
		OFFSET 0 0 0
		CHANNELS 3 Zrotation Xrotation Yrotation
		JOINT Neck
		{
			OFFSET 0.00 0.2701 0.00
			CHANNELS 3 Zrotation Xrotation Yrotation
			End Site
			{
				OFFSET 0.00 0.1379 0.00
			}
		}
		JOINT RightShoulder
		{
			OFFSET 0.0119 0.2289 0.1181
			CHANNELS 3 Zrotation Xrotation Yrotation
			JOINT RightElbow
			{
				OFFSET 0.00 -0.1475 0.00
				CHANNELS 2 Zrotation Yrotation
				JOINT RightWrist
				{
					OFFSET 0.00 -0.1605 0.00
					CHANNELS 2 Zrotation Xrotation
					End Site
					{
						OFFSET 0.0040 -0.1068 0.0006
					}
				}
			}
		}
		JOINT LeftShoulder
		{
			OFFSET 0.0119 0.2289 -0.1181
			CHANNELS 3 Zrotation Xrotation Yrotation
			JOINT LeftElbow
			{
				OFFSET 0.00 -0.1475 0.00
				CHANNELS 2 Zrotation Yrotation
				JOINT LeftWrist
				{
					OFFSET 0.00 -0.1605 0.00
					CHANNELS 2 Zrotation Xrotation
					End Site
					{
						OFFSET 0.0040 -0.1068 -0.0006
					}
				}
			}
		}
	}
	JOINT RightHip
	{
		OFFSET 0.0316 -0.0424 0.0458
		CHANNELS 3 Zrotation Xrotation Yrotation
		JOINT RightKnee
		{
			OFFSET 0.00 -0.2438 0.00
			CHANNELS 1 Zrotation
			JOINT RightAnkle
			{
				OFFSET 0.00 -0.2449 0.00
				CHANNELS 3 Zrotation Xrotation Yrotation
				End Site
				{
					OFFSET 0.1237 -0.0542 0.0051
				}
			}
		}
	}
	JOINT LeftHip
	{
		OFFSET 0.0316 -0.0424 -0.0458
		CHANNELS 3 Zrotation Xrotation Yrotation
		JOINT LeftKnee
		{
			OFFSET 0.00 -0.2438 0.00
			CHANNELS 1 Zrotation
			JOINT LeftAnkle
			{
				OFFSET 0.00 -0.2449 0.00
				CHANNELS 3 Zrotation Xrotation Yrotation
				End Site
				{
					OFFSET 0.1237 -0.0542 -0.0051
				}
			}
		}
	}
}
MOTION
Frames: 19
Frame Time: 0.02
-1.46397 -0.00374 0.63902 1049.86521 -42.99398 -4.75524 15.56893 0.92559 -41.61438 -24.87029 7.12516 -2.11994 21.50858 -36.01983 1.13268 134.30119 126.27709 -28.37129 -12.83951 15.06639 39.9205 -18.46519 42.46852 -80.38479 2.58687 7.98624 76.62534 13.69369 -46.69594 -6.96835 -32.43203 11.6177 3.45718 64.12636 16.64449 8.62584 -49.2803 -7.88062 0.5341 2.56283
-1.45445 -0.00264 0.64503 1049.90979 -43.22188 -4.97717 15.43104 0.9605 -41.06889 -24.93468 7.4388 -2.11994 20.89169 -35.60608 0.64817 134.30118 127.37619 -28.80306 -12.81159 12.2237 38.39116 -16.10576 41.85747 -80.40818 2.8856 7.92771 76.27322 13.69368 -46.69595 -7.61275 -32.02059 11.31802 3.322 64.97506 16.93631 7.23736 -51.4819 -8.41942 0.35881 2.49938
-1.4453 -0.00087 0.65088 1049.52472 -43.49796 -5.43175 15.20091 0.96782 -40.21816 -25.01331 7.85579 -2.11994 20.29635 -34.92291 0.22694 134.30119 128.74466 -29.266 -12.67379 9.28232 36.89637 -13.4783 41.03621 -80.46693 3.22589 7.75744 76.07711 13.69369 -46.69597 -8.7575 -31.57026 11.21538 3.36113 66.16904 17.29042 5.22124 -53.77739 -9.13838 0.17836 2.44069
-1.436 0.0006 0.65679 1049.35308 -43.74496 -5.76605 15.01542 0.98062 -39.51297 -25.07996 8.18512 -2.11994 19.71256 -34.37682 -0.20489 134.30118 129.94783 -29.68991 -12.59013 6.40675 35.38413 -10.96947 40.27664 -80.5129 3.54067 7.62143 75.78571 13.69369 -46.69598 -9.64767 -31.11508 11.01004 3.33222 67.20888 17.61073 3.51105 -56.00783 -9.76918 0.00319 2.38094
-1.42661 0.00205 0.66279 1049.10743 -44.02384 -6.15926 14.81909 1.02294 -38.77938 -25.16715 8.6804 -2.11994 19.03937 -33.76495 -0.7091 134.30118 131.3277 -30.22482 -12.48838 3.42985 33.86972 -8.46021 39.6449 -80.54547 3.89054 7.55539 75.58086 13.69369 -46.696 -10.64509 -30.74723 10.85495 3.25638 68.23942 17.95446 1.7093 -58.34367 -10.43215 -0.18585 2.31604
-1.4175 0.0037 0.66854 1048.91331 -44.24849 -6.48607 14.62564 0.99746 -38.03141 -25.21672 8.85752 -2.11994 18.55381 -33.22942 -1.05274 134.30118 132.40813 -30.53731 -12.39871 0.64537 32.37336 -5.89743 38.70805 -80.61412 4.1745 7.31883 75.23961 13.69369 -46.69601 -11.53946 -30.19149 10.65024 3.31711 69.3688 18.26456 -0.04544 -60.46438 -11.06795 -0.34594 2.26352
-1.40903 0.00571 0.67363 1048.96115 -44.29488 -6.57108 14.43243 0.78976 -37.32965 -25.14974 8.12249 -2.11994 18.62502 -32.94797 -0.92264 134.30118 132.5571 -30.18183 -12.36356 -1.58099 30.89886 -3.20612 36.91518 -80.77428 4.26649 6.6164 74.47619 13.69369 -46.69601 -12.04291 -29.12275 10.18311 3.74435 70.70174 18.4606 -1.561 -62.12803 -11.59569 -0.43426 2.23966
-1.40082 0.00788 0.67846 1049.07642 -44.28742 -6.58156 14.25036 0.51501 -36.62216 -25.0463 7.06635 -2.11994 18.87756 -32.75672 -0.64059 134.30118 132.40148 -29.60825 -12.34462 -3.60841 29.44663 -0.48172 34.8364 -80.96928 4.2903 5.7504 73.57306 13.69369 -46.69601 -12.42286 -27.86779 9.67297 4.29829 72.11605 18.62131 -2.99791 -63.53659 -12.08799 -0.49177 2.22875
-1.39249 0.00998 0.6834 1049.16369 -44.31556 -6.62795 14.08268 0.27226 -35.90976 -24.96602 6.16297 -2.11994 19.01747 -32.53982 -0.45967 134.30119 132.41245 -29.1638 -12.32299 -5.72746 27.99741 2.19781 32.93174 -81.14799 4.34335 4.97322 72.74186 13.69369 -46.69602 -12.8512 -26.70187 9.23346 4.7725 73.48728 18.80247 -4.44369 -64.96559 -12.58751 -0.55661 2.21502
-1.38418 0.01211 0.68839 1049.22409 -44.29973 -6.67514 13.83017 0.02255 -35.21758 -24.85887 5.23282 -2.11994 19.28159 -32.25043 -0.14583 134.30119 132.31919 -28.59534 -12.28104 -7.84721 26.49155 5.01923 30.83095 -81.33019 4.40271 4.12972 71.88305 13.69369 -46.69602 -13.33292 -25.51676 8.587 5.34267 74.90981 18.96875 -6.03072 -66.82631 -13.12738 -0.64829 2.18924
-1.37589 0.0142 0.69319 1049.36306 -44.36046 -6.69826 13.75762 -0.2288 -34.48694 -24.79823 4.28264 -2.11994 19.3349 -32.13482 -0.06767 134.30119 132.36052 -28.23114 -12.28261 -9.91417 25.11138 7.54142 29.07616 -81.51253 4.43549 3.38859 71.04299 13.69369 -46.69602 -13.66337 -24.3268 8.35652 5.74526 76.22341 19.15496 -7.28929 -67.69422 -13.57687 -0.67859 2.19068
-1.36759 0.01613 0.69754 1049.69443 -44.65884 -6.68826 14.18439 -0.46275 -33.6444 -24.8804 3.343 -2.11994 18.71738 -32.49638 -0.72952 134.30119 132.90457 -28.4989 -12.4367 -11.90646 24.04861 9.29683 28.32714 -81.69023 4.38153 2.95561 70.3209 13.69369 -46.69605 -13.64417 -23.17733 9.30235 5.61386 77.3647 19.42108 -7.70957 -66.16526 -13.75257 -0.53718 2.268
-1.35929 0.01799 0.7017 1050.10511 -45.03326 -6.65385 14.79118 -0.69656 -32.76635 -25.0097 2.39831 -2.11994 17.88921 -33.02715 -1.62504 134.3012 133.58311 -28.97656 -12.62832 -13.84764 23.11591 10.73674 27.94174 -81.86611 4.30781 2.63382 69.61661 13.69368 -46.69599 -13.46997 -22.02694 10.66289 5.31516 78.36808 19.70569 -7.78236 -63.60082 -13.84816 -0.34148 2.36898
-1.35098 0.01986 0.70592 1050.48836 -45.36425 -6.61795 15.31293 -0.9344 -31.91063 -25.11351 1.46102 -2.11994 17.18702 -33.46952 -2.37899 134.3012 134.16106 -29.34872 -12.77887 -15.79715 22.13937 12.27442 27.40282 -82.0403 4.2635 2.27217 68.88137 13.6937 -46.6961 -13.33621 -20.87317 11.82287 5.11971 79.33043 19.97012 -7.98787 -61.31478 -13.99542 -0.17114 2.45978
-1.34273 0.02185 0.71024 1050.84188 -45.73157 -6.62763 15.84949 -1.15937 -31.02789 -25.23251 0.48218 -2.11994 16.36524 -33.96474 -3.27438 134.30121 134.89339 -29.75711 -13.02918 -17.80321 21.09918 14.00282 26.80103 -82.22612 4.1336 1.86274 68.23442 13.69369 -46.69608 -13.31474 -19.73357 13.03752 4.81761 80.71724 20.28072 -8.3272 -59.79837 -14.05897 0.02213 2.55905
-1.33434 0.02356 0.7143 1051.26961 -46.04106 -6.54392 16.39675 -1.40832 -30.19372 -25.33248 -0.39604 -2.11994 15.73793 -34.38728 -3.93586 134.30121 135.34233 -30.1413 -13.08307 -19.68128 20.22216 15.26256 26.42434 -82.38712 4.1744 1.57757 67.41391 13.69364 -46.69579 -13.03715 -18.56085 14.23108 4.69156 81.20671 20.50294 -8.26887 -56.47759 -14.30107 0.15637 2.63305
-1.3256 0.02452 0.7178 1051.93119 -46.1801 -6.15308 16.93878 -1.74007 -29.49815 -25.36072 -1.08887 -2.11994 15.71721 -34.58185 -3.86746 134.30121 134.95695 -30.42082 -12.56295 -21.22348 19.76407 15.26955 26.54707 -82.47727 4.7241 1.64253 66.07386 13.69382 -46.69669 -11.97962 -17.35067 15.31435 5.13022 79.07091 20.45159 -7.52899 -48.07369 -14.8517 0.32455 2.74737
-1.31671 0.02518 0.72105 1052.65474 -46.25705 -5.67953 17.48353 -2.09274 -28.85386 -25.36986 -1.66127 -2.11994 15.89503 -34.69442 -3.56133 134.3012 134.28679 -30.6676 -11.84817 -22.63795 19.46559 14.82181 26.89096 -82.54283 5.44051 1.82354 64.5663 13.69353 -46.69528 -10.6919 -16.10029 16.35037 5.74304 76.06818 20.31552 -6.34837 -37.95713 -15.61651 0.39701 2.81662
-1.30785 0.02595 0.72437 1053.31872 -46.35761 -5.28068 18.02098 -2.42441 -28.18853 -25.39288 -2.22564 -2.11994 15.96941 -34.8348 -3.38239 134.3012 133.76083 -30.92124 -11.23693 -24.10952 19.09381 14.6061 27.15745 -82.62129 6.05947 1.9293 63.15922 13.69366 -46.69582 -9.58141 -14.83122 17.37922 6.25216 73.58328 20.23473 -5.14095 -28.85792 -16.42559 0.36892 2.82673
